<svg xmlns="http://www.w3.org/2000/svg" width="2718" height="623" viewBox="0 0 2718 623">
  <g id="Group_111747" data-name="Group 111747" transform="translate(-19467 -3941)">
    <g id="Path_150072" data-name="Path 150072" transform="translate(19467 3941)" fill="#0a8080">
      <path d="M 311.5 622.5 C 290.398681640625 622.5 269.3108520507812 620.3741455078125 248.8221588134766 616.181640625 C 228.8543853759766 612.0956420898438 209.2134552001953 605.9987182617188 190.4449157714844 598.060302734375 C 172.0169982910156 590.2659301757812 154.2432250976562 580.6185913085938 137.6173095703125 569.3864135742188 C 121.1492309570312 558.2607421875 105.6633071899414 545.4837036132812 91.58976745605469 531.4102172851562 C 77.51630401611328 517.336669921875 64.73922729492188 501.8507690429688 53.61361694335938 485.3826904296875 C 42.38138580322266 468.7567749023438 32.73407745361328 450.9830017089844 24.9396915435791 432.5550842285156 C 17.00130844116211 413.7865295410156 10.90438461303711 394.1456298828125 6.818384647369385 374.1778564453125 C 2.625846147537231 353.6891479492188 0.5 332.601318359375 0.5 311.5 C 0.5 290.398681640625 2.625846147537231 269.3108520507812 6.818384647369385 248.8221588134766 C 10.90438461303711 228.8543853759766 17.00130844116211 209.2134552001953 24.9396915435791 190.4449157714844 C 32.73407745361328 172.0169982910156 42.38138580322266 154.2432250976562 53.61361694335938 137.6173095703125 C 64.73922729492188 121.1492309570312 77.51630401611328 105.6633071899414 91.58976745605469 91.58976745605469 C 105.6633071899414 77.51630401611328 121.1492309570312 64.73922729492188 137.6173095703125 53.61361694335938 C 154.2432250976562 42.38138580322266 172.0169982910156 32.73407745361328 190.4449157714844 24.9396915435791 C 209.2134552001953 17.00130844116211 228.8543853759766 10.90438461303711 248.8221588134766 6.818384647369385 C 269.3108520507812 2.625846147537231 290.398681640625 0.5 311.5 0.5 C 332.601318359375 0.5 353.6891479492188 2.625846147537231 374.1778564453125 6.818384647369385 C 394.1456298828125 10.90438461303711 413.7865295410156 17.00130844116211 432.5550842285156 24.9396915435791 C 450.9830017089844 32.73407745361328 468.7567749023438 42.38138580322266 485.3826904296875 53.61361694335938 C 501.8507690429688 64.73922729492188 517.336669921875 77.51630401611328 531.4102172851562 91.58976745605469 C 545.4837036132812 105.6633071899414 558.2607421875 121.1492309570312 569.3864135742188 137.6173095703125 C 580.6185913085938 154.2432250976562 590.2659301757812 172.0169982910156 598.060302734375 190.4449157714844 C 605.9987182617188 209.2134552001953 612.0956420898438 228.8543853759766 616.181640625 248.8221588134766 C 620.3741455078125 269.3108520507812 622.5 290.398681640625 622.5 311.5 C 622.5 332.601318359375 620.3741455078125 353.6891479492188 616.181640625 374.1778564453125 C 612.0956420898438 394.1456298828125 605.9987182617188 413.7865295410156 598.060302734375 432.5550842285156 C 590.2659301757812 450.9830017089844 580.6185913085938 468.7567749023438 569.3864135742188 485.3826904296875 C 558.2607421875 501.8507690429688 545.4837036132812 517.336669921875 531.4102172851562 531.4102172851562 C 517.336669921875 545.4837036132812 501.8507690429688 558.2607421875 485.3826904296875 569.3864135742188 C 468.7567749023438 580.6185913085938 450.9830017089844 590.2659301757812 432.5550842285156 598.060302734375 C 413.7865295410156 605.9987182617188 394.1456298828125 612.0956420898438 374.1778564453125 616.181640625 C 353.6891479492188 620.3741455078125 332.601318359375 622.5 311.5 622.5 Z" stroke="none"/>
      <path d="M 311.5 1 C 290.4323120117188 1 269.3781433105469 3.12237548828125 248.9223937988281 7.30828857421875 C 228.9869079589844 11.38763427734375 209.3778381347656 17.47467041015625 190.6396789550781 25.40020751953125 C 172.2415466308594 33.1820068359375 154.4963989257812 42.81378173828125 137.897216796875 54.02789306640625 C 121.4554748535156 65.1357421875 105.994384765625 77.892333984375 91.943359375 91.943359375 C 77.892333984375 105.994384765625 65.1357421875 121.4554748535156 54.02789306640625 137.897216796875 C 42.81378173828125 154.4963989257812 33.1820068359375 172.2415466308594 25.40020751953125 190.6396789550781 C 17.47467041015625 209.3778381347656 11.38763427734375 228.9869079589844 7.30828857421875 248.9223937988281 C 3.12237548828125 269.3781433105469 1 290.4323120117188 1 311.5 C 1 332.5676879882812 3.12237548828125 353.6218566894531 7.30828857421875 374.07763671875 C 11.38763427734375 394.0130615234375 17.47467041015625 413.6221313476562 25.40020751953125 432.3602905273438 C 33.1820068359375 450.7584838867188 42.81378173828125 468.5036010742188 54.02789306640625 485.102783203125 C 65.1357421875 501.5445556640625 77.892333984375 517.005615234375 91.943359375 531.056640625 C 105.994384765625 545.107666015625 121.4554748535156 557.8642578125 137.897216796875 568.9720458984375 C 154.4963989257812 580.1862182617188 172.2415466308594 589.8179931640625 190.6396789550781 597.5997924804688 C 209.3778381347656 605.5253295898438 228.9869079589844 611.6123657226562 248.9223937988281 615.6917114257812 C 269.3781433105469 619.8776245117188 290.4323120117188 622 311.5 622 C 332.5676879882812 622 353.6218566894531 619.8776245117188 374.07763671875 615.6917114257812 C 394.0130615234375 611.6123657226562 413.6221313476562 605.5253295898438 432.3602905273438 597.5997924804688 C 450.7584838867188 589.8179931640625 468.5036010742188 580.1862182617188 485.102783203125 568.9720458984375 C 501.5445556640625 557.8642578125 517.005615234375 545.107666015625 531.056640625 531.056640625 C 545.107666015625 517.005615234375 557.8642578125 501.5445556640625 568.9720458984375 485.102783203125 C 580.1862182617188 468.5036010742188 589.8179931640625 450.7584838867188 597.5997924804688 432.3602905273438 C 605.5253295898438 413.6221313476562 611.6123657226562 394.0130615234375 615.6917114257812 374.07763671875 C 619.8776245117188 353.6218566894531 622 332.5676879882812 622 311.5 C 622 290.4323120117188 619.8776245117188 269.3781433105469 615.6917114257812 248.9223937988281 C 611.6123657226562 228.9869079589844 605.5253295898438 209.3778381347656 597.5997924804688 190.6396789550781 C 589.8179931640625 172.2415466308594 580.1862182617188 154.4963989257812 568.9720458984375 137.897216796875 C 557.8642578125 121.4554748535156 545.107666015625 105.994384765625 531.056640625 91.943359375 C 517.005615234375 77.892333984375 501.5445556640625 65.1357421875 485.102783203125 54.02789306640625 C 468.5036010742188 42.81378173828125 450.7584838867188 33.1820068359375 432.3602905273438 25.40020751953125 C 413.6221313476562 17.47467041015625 394.0130615234375 11.38763427734375 374.07763671875 7.30828857421875 C 353.6218566894531 3.12237548828125 332.5676879882812 1 311.5 1 M 311.5 0 C 483.5366821289062 0 623 139.4633178710938 623 311.5 C 623 483.5366821289062 483.5366821289062 623 311.5 623 C 139.4633178710938 623 0 483.5366821289062 0 311.5 C 0 139.4633178710938 139.4633178710938 0 311.5 0 Z" stroke="none" fill="#707070"/>
    </g>
    <g id="Group_111736" data-name="Group 111736" transform="translate(108.164 -9641.19)">
      <path id="Path_150070" data-name="Path 150070" d="M39.659,0c60.363,53.534,118.753,105.32,179.489,159.185V22.48c3.878,3.407,6.185,5.072,8.051,7.131,16.15,17.805,32.417,35.51,48.146,53.684,3.015,3.483,5.386,8.869,5.412,13.4.423,67.791.4,135.585.449,203.379,0,1.075-.487,2.147-1.265,5.343-59.5-57.664-118.07-114.42-179.437-173.887v15.629c-.01,36.266.1,72.533-.076,108.8-.088,18.212-8.677,29.856-23.952,33.468A30.057,30.057,0,0,1,39.6,265.133a55.06,55.06,0,0,1-.652-9.414q-.068-122.4-.04-244.793c0-2.711.361-5.421.754-10.926" transform="translate(19556.43 13700.19)" fill="#fff"/>
      <path id="Path_150071" data-name="Path 150071" d="M.763,27.9C19.125,45.248,37.69,62.3,55.5,80.109c2.994,2.994,3.733,9.266,3.764,14.036.283,43.752-.193,87.508.319,131.253.354,30.289,21.255,55.044,49.867,60.805,29.573,5.954,59.227-8.891,70.564-36.7,3.612-8.855,4.86-19.063,5.31-28.738.818-17.65.233-35.365.233-56.071,7.523,7.321,13.309,12.8,18.932,18.449,12.236,12.284,24.836,24.254,36.307,37.222,3.541,4,6.465,11.473,5.25,16.226-4.071,15.929-8.515,32.146-15.736,46.817-25.478,51.767-76.837,75.384-133.243,62.7C41.83,333.688,1.3,285.82.509,229.54-.416,163.337.2,97.11.2,30.893a10,10,0,0,1,.564-3" transform="translate(19502.836 13738.627)" fill="#fff"/>
    </g>
    <text id="Next_Unicorn" data-name="Next Unicorn" transform="translate(20177 4367)" fill="#0a8080" font-size="338" font-family="Geometric415BT-BlackA, Geometr415 Blk BT" font-weight="800"><tspan x="0" y="0">Next Unicorn</tspan></text>
  </g>
</svg>
