<svg xmlns="http://www.w3.org/2000/svg" width="2718" height="623" viewBox="0 0 2718 623">
  <g id="Group_111747" data-name="Group 111747" transform="translate(-19467 -3941)">
    <path id="Path_150072" data-name="Path 150072" d="M311.5,0C483.537,0,623,139.463,623,311.5S483.537,623,311.5,623,0,483.537,0,311.5,139.463,0,311.5,0Z" transform="translate(19467 3941)" fill="#fff"/>
    <g id="Group_111736" data-name="Group 111736" transform="translate(108.164 -9641.19)">
      <path id="Path_150070" data-name="Path 150070" d="M39.659,0c60.363,53.534,118.753,105.32,179.489,159.185V22.48c3.878,3.407,6.185,5.072,8.051,7.131,16.15,17.805,32.417,35.51,48.146,53.684,3.015,3.483,5.386,8.869,5.412,13.4.423,67.791.4,135.585.449,203.379,0,1.075-.487,2.147-1.265,5.343-59.5-57.664-118.07-114.42-179.437-173.887v15.629c-.01,36.266.1,72.533-.076,108.8-.088,18.212-8.677,29.856-23.952,33.468A30.057,30.057,0,0,1,39.6,265.133a55.06,55.06,0,0,1-.652-9.414q-.068-122.4-.04-244.793c0-2.711.361-5.421.754-10.926" transform="translate(19556.43 13700.19)" fill="#0a8080"/>
      <path id="Path_150071" data-name="Path 150071" d="M.763,27.9C19.125,45.248,37.69,62.3,55.5,80.109c2.994,2.994,3.733,9.266,3.764,14.036.283,43.752-.193,87.508.319,131.253.354,30.289,21.255,55.044,49.867,60.805,29.573,5.954,59.227-8.891,70.564-36.7,3.612-8.855,4.86-19.063,5.31-28.738.818-17.65.233-35.365.233-56.071,7.523,7.321,13.309,12.8,18.932,18.449,12.236,12.284,24.836,24.254,36.307,37.222,3.541,4,6.465,11.473,5.25,16.226-4.071,15.929-8.515,32.146-15.736,46.817-25.478,51.767-76.837,75.384-133.243,62.7C41.83,333.688,1.3,285.82.509,229.54-.416,163.337.2,97.11.2,30.893a10,10,0,0,1,.564-3" transform="translate(19502.836 13738.627)" fill="#0a8080"/>
    </g>
    <text id="Next_Unicorn" data-name="Next Unicorn" transform="translate(20177 4367)" fill="#fff" font-size="338" font-family="Geometric415BT-BlackA, Geometr415 Blk BT" font-weight="800"><tspan x="0" y="0">Next Unicorn</tspan></text>
  </g>
</svg>
